<?xml version="1.0" encoding="UTF-8" standalone="no"?>
<!DOCTYPE svg PUBLIC "-//W3C//DTD SVG 1.1//EN"
 "http://www.w3.org/Graphics/SVG/1.1/DTD/svg11.dtd">
<!-- Generated by graphviz version 13.1.0 (20250701.0955)
 -->
<!-- Title: src/driver_vs1053b.c Pages: 1 -->
<svg width="550pt" height="152pt"
 viewBox="0.00 0.00 550.00 152.00" xmlns="http://www.w3.org/2000/svg" xmlns:xlink="http://www.w3.org/1999/xlink">
<g id="graph0" class="graph" transform="scale(1 1) rotate(0) translate(4 148)">
<title>src/driver_vs1053b.c</title>
<!-- Node1 -->
<g id="Node000001" class="node">
<title>Node1</title>
<g id="a_Node000001"><a xlink:title="driver vs1053b source file">
<polygon fill="#999999" stroke="#666666" points="367,-144 260.25,-144 260.25,-124 367,-124 367,-144"/>
<text xml:space="preserve" text-anchor="middle" x="313.62" y="-130.5" font-family="Helvetica,sans-Serif" font-size="10.00">src/driver_vs1053b.c</text>
</a>
</g>
</g>
<!-- Node2 -->
<g id="Node000002" class="node">
<title>Node2</title>
<g id="a_Node000002"><a xlink:href="driver__vs1053b_8h.html" target="_top" xlink:title="driver vs1053b header file">
<polygon fill="white" stroke="#666666" points="477.75,-82 387.5,-82 387.5,-62 477.75,-62 477.75,-82"/>
<text xml:space="preserve" text-anchor="middle" x="432.62" y="-68.5" font-family="Helvetica,sans-Serif" font-size="10.00">driver_vs1053b.h</text>
</a>
</g>
</g>
<!-- Node1&#45;&gt;Node2 -->
<g id="edge1_Node000001_Node000002" class="edge">
<title>Node1&#45;&gt;Node2</title>
<g id="a_edge1_Node000001_Node000002"><a xlink:title=" ">
<path fill="none" stroke="#63b8ff" d="M332.22,-123.62C351.43,-113.94 381.67,-98.69 403.95,-87.46"/>
<polygon fill="#63b8ff" stroke="#63b8ff" points="405.46,-90.62 412.81,-82.99 402.31,-84.37 405.46,-90.62"/>
</a>
</g>
</g>
<!-- Node6 -->
<g id="Node000006" class="node">
<title>Node6</title>
<g id="a_Node000006"><a xlink:href="driver__vs1053b__patch__ogg__venc44k2q05_8h.html" target="_top" xlink:title="driver vs1053b patch ogg venc44k2q05 header file">
<polygon fill="white" stroke="#666666" points="111.25,-88 0,-88 0,-56 111.25,-56 111.25,-88"/>
<text xml:space="preserve" text-anchor="start" x="8" y="-74.5" font-family="Helvetica,sans-Serif" font-size="10.00">driver_vs1053b_patch</text>
<text xml:space="preserve" text-anchor="middle" x="55.62" y="-62.5" font-family="Helvetica,sans-Serif" font-size="10.00">_ogg_venc44k2q05.h</text>
</a>
</g>
</g>
<!-- Node1&#45;&gt;Node6 -->
<g id="edge5_Node000001_Node000006" class="edge">
<title>Node1&#45;&gt;Node6</title>
<g id="a_edge5_Node000001_Node000006"><a xlink:title=" ">
<path fill="none" stroke="#63b8ff" d="M272.74,-123.55C235.86,-115.01 179.8,-102.02 122.55,-88.68"/>
<polygon fill="#63b8ff" stroke="#63b8ff" points="123.48,-85.3 112.94,-86.44 121.89,-92.12 123.48,-85.3"/>
</a>
</g>
</g>
<!-- Node7 -->
<g id="Node000007" class="node">
<title>Node7</title>
<g id="a_Node000007"><a xlink:href="driver__vs1053b__patch__flac_8h.html" target="_top" xlink:title="driver vs1053b patch flac header file">
<polygon fill="white" stroke="#666666" points="240.25,-88 129,-88 129,-56 240.25,-56 240.25,-88"/>
<text xml:space="preserve" text-anchor="start" x="137" y="-74.5" font-family="Helvetica,sans-Serif" font-size="10.00">driver_vs1053b_patch</text>
<text xml:space="preserve" text-anchor="middle" x="184.62" y="-62.5" font-family="Helvetica,sans-Serif" font-size="10.00">_flac.h</text>
</a>
</g>
</g>
<!-- Node1&#45;&gt;Node7 -->
<g id="edge9_Node000001_Node000007" class="edge">
<title>Node1&#45;&gt;Node7</title>
<g id="a_edge9_Node000001_Node000007"><a xlink:title=" ">
<path fill="none" stroke="#63b8ff" d="M293.47,-123.62C276.03,-115.52 250.22,-103.51 228.11,-93.23"/>
<polygon fill="#63b8ff" stroke="#63b8ff" points="229.85,-90.17 219.3,-89.13 226.89,-96.52 229.85,-90.17"/>
</a>
</g>
</g>
<!-- Node8 -->
<g id="Node000008" class="node">
<title>Node8</title>
<g id="a_Node000008"><a xlink:href="driver__vs1053b__patch__wav_8h.html" target="_top" xlink:title="driver vs1053b patch wav header file">
<polygon fill="white" stroke="#666666" points="369.25,-88 258,-88 258,-56 369.25,-56 369.25,-88"/>
<text xml:space="preserve" text-anchor="start" x="266" y="-74.5" font-family="Helvetica,sans-Serif" font-size="10.00">driver_vs1053b_patch</text>
<text xml:space="preserve" text-anchor="middle" x="313.62" y="-62.5" font-family="Helvetica,sans-Serif" font-size="10.00">_wav.h</text>
</a>
</g>
</g>
<!-- Node1&#45;&gt;Node8 -->
<g id="edge13_Node000001_Node000008" class="edge">
<title>Node1&#45;&gt;Node8</title>
<g id="a_edge13_Node000001_Node000008"><a xlink:title=" ">
<path fill="none" stroke="#63b8ff" d="M313.62,-123.62C313.62,-117.1 313.62,-108.05 313.62,-99.4"/>
<polygon fill="#63b8ff" stroke="#63b8ff" points="317.13,-99.65 313.63,-89.65 310.13,-99.65 317.13,-99.65"/>
</a>
</g>
</g>
<!-- Node9 -->
<g id="Node000009" class="node">
<title>Node9</title>
<g id="a_Node000009"><a xlink:title=" ">
<polygon fill="#e0e0e0" stroke="#999999" points="541.62,-82 495.62,-82 495.62,-62 541.62,-62 541.62,-82"/>
<text xml:space="preserve" text-anchor="middle" x="518.62" y="-68.5" font-family="Helvetica,sans-Serif" font-size="10.00">math.h</text>
</a>
</g>
</g>
<!-- Node1&#45;&gt;Node9 -->
<g id="edge17_Node000001_Node000009" class="edge">
<title>Node1&#45;&gt;Node9</title>
<g id="a_edge17_Node000001_Node000009"><a xlink:title=" ">
<path fill="none" stroke="#63b8ff" d="M359.12,-123.57C394.42,-115.69 444.3,-103.28 486.62,-88 487.58,-87.65 488.55,-87.29 489.53,-86.91"/>
<polygon fill="#63b8ff" stroke="#63b8ff" points="490.7,-90.21 498.52,-83.07 487.95,-83.78 490.7,-90.21"/>
</a>
</g>
</g>
<!-- Node3 -->
<g id="Node000003" class="node">
<title>Node3</title>
<g id="a_Node000003"><a xlink:title=" ">
<polygon fill="#e0e0e0" stroke="#999999" points="206.25,-20 161,-20 161,0 206.25,0 206.25,-20"/>
<text xml:space="preserve" text-anchor="middle" x="183.62" y="-6.5" font-family="Helvetica,sans-Serif" font-size="10.00">stdio.h</text>
</a>
</g>
</g>
<!-- Node2&#45;&gt;Node3 -->
<g id="edge2_Node000002_Node000003" class="edge">
<title>Node2&#45;&gt;Node3</title>
<g id="a_edge2_Node000002_Node000003"><a xlink:title=" ">
<path fill="none" stroke="#63b8ff" d="M399.57,-61.52C392.67,-59.62 385.42,-57.69 378.62,-56 310.01,-38.91 289.49,-38.09 217.64,-20.38"/>
<polygon fill="#63b8ff" stroke="#63b8ff" points="218.67,-17.04 208.12,-18.01 216.98,-23.83 218.67,-17.04"/>
</a>
</g>
</g>
<!-- Node4 -->
<g id="Node000004" class="node">
<title>Node4</title>
<g id="a_Node000004"><a xlink:title=" ">
<polygon fill="#e0e0e0" stroke="#999999" points="272.75,-20 224.5,-20 224.5,0 272.75,0 272.75,-20"/>
<text xml:space="preserve" text-anchor="middle" x="248.62" y="-6.5" font-family="Helvetica,sans-Serif" font-size="10.00">stdint.h</text>
</a>
</g>
</g>
<!-- Node2&#45;&gt;Node4 -->
<g id="edge3_Node000002_Node000004" class="edge">
<title>Node2&#45;&gt;Node4</title>
<g id="a_edge3_Node000002_Node000004"><a xlink:title=" ">
<path fill="none" stroke="#63b8ff" d="M403.88,-61.62C371.41,-51.04 318.57,-33.81 283.7,-22.44"/>
<polygon fill="#63b8ff" stroke="#63b8ff" points="285.09,-19.21 274.5,-19.44 282.92,-25.86 285.09,-19.21"/>
</a>
</g>
</g>
<!-- Node5 -->
<g id="Node000005" class="node">
<title>Node5</title>
<g id="a_Node000005"><a xlink:title=" ">
<polygon fill="#e0e0e0" stroke="#999999" points="338.75,-20 290.5,-20 290.5,0 338.75,0 338.75,-20"/>
<text xml:space="preserve" text-anchor="middle" x="314.62" y="-6.5" font-family="Helvetica,sans-Serif" font-size="10.00">string.h</text>
</a>
</g>
</g>
<!-- Node2&#45;&gt;Node5 -->
<g id="edge4_Node000002_Node000005" class="edge">
<title>Node2&#45;&gt;Node5</title>
<g id="a_edge4_Node000002_Node000005"><a xlink:title=" ">
<path fill="none" stroke="#63b8ff" d="M414.19,-61.62C395.14,-51.94 365.15,-36.69 343.06,-25.46"/>
<polygon fill="#63b8ff" stroke="#63b8ff" points="344.78,-22.41 334.28,-21 341.61,-28.65 344.78,-22.41"/>
</a>
</g>
</g>
<!-- Node6&#45;&gt;Node3 -->
<g id="edge6_Node000006_Node000003" class="edge">
<title>Node6&#45;&gt;Node3</title>
<g id="a_edge6_Node000006_Node000003"><a xlink:title=" ">
<path fill="none" stroke="#63b8ff" d="M88.59,-55.55C108.5,-46.22 133.69,-34.41 153.13,-25.29"/>
<polygon fill="#63b8ff" stroke="#63b8ff" points="154.62,-28.46 162.18,-21.05 151.64,-22.13 154.62,-28.46"/>
</a>
</g>
</g>
<!-- Node6&#45;&gt;Node4 -->
<g id="edge7_Node000006_Node000004" class="edge">
<title>Node6&#45;&gt;Node4</title>
<g id="a_edge7_Node000006_Node000004"><a xlink:title=" ">
<path fill="none" stroke="#63b8ff" d="M105.33,-55.55C139.1,-45.05 182.96,-31.41 213.21,-22.01"/>
<polygon fill="#63b8ff" stroke="#63b8ff" points="214.14,-25.39 222.65,-19.08 212.06,-18.7 214.14,-25.39"/>
</a>
</g>
</g>
<!-- Node6&#45;&gt;Node5 -->
<g id="edge8_Node000006_Node000005" class="edge">
<title>Node6&#45;&gt;Node5</title>
<g id="a_edge8_Node000006_Node000005"><a xlink:title=" ">
<path fill="none" stroke="#63b8ff" d="M111.46,-57.87C114.22,-57.24 116.95,-56.61 119.62,-56 188.16,-40.35 208.17,-37.92 279.28,-20.5"/>
<polygon fill="#63b8ff" stroke="#63b8ff" points="279.81,-23.97 288.68,-18.18 278.13,-17.17 279.81,-23.97"/>
</a>
</g>
</g>
<!-- Node7&#45;&gt;Node3 -->
<g id="edge10_Node000007_Node000003" class="edge">
<title>Node7&#45;&gt;Node3</title>
<g id="a_edge10_Node000007_Node000003"><a xlink:title=" ">
<path fill="none" stroke="#63b8ff" d="M184.37,-55.55C184.25,-48.34 184.1,-39.66 183.97,-31.88"/>
<polygon fill="#63b8ff" stroke="#63b8ff" points="187.47,-31.86 183.81,-21.92 180.47,-31.98 187.47,-31.86"/>
</a>
</g>
</g>
<!-- Node7&#45;&gt;Node4 -->
<g id="edge11_Node000007_Node000004" class="edge">
<title>Node7&#45;&gt;Node4</title>
<g id="a_edge11_Node000007_Node000004"><a xlink:title=" ">
<path fill="none" stroke="#63b8ff" d="M201.11,-55.55C210.09,-47.13 221.22,-36.69 230.45,-28.04"/>
<polygon fill="#63b8ff" stroke="#63b8ff" points="232.58,-30.84 237.49,-21.44 227.8,-25.73 232.58,-30.84"/>
</a>
</g>
</g>
<!-- Node7&#45;&gt;Node5 -->
<g id="edge12_Node000007_Node000005" class="edge">
<title>Node7&#45;&gt;Node5</title>
<g id="a_edge12_Node000007_Node000005"><a xlink:title=" ">
<path fill="none" stroke="#63b8ff" d="M218.1,-55.55C238.42,-46.17 264.15,-34.3 283.93,-25.17"/>
<polygon fill="#63b8ff" stroke="#63b8ff" points="285.25,-28.41 292.87,-21.04 282.32,-22.06 285.25,-28.41"/>
</a>
</g>
</g>
<!-- Node8&#45;&gt;Node3 -->
<g id="edge14_Node000008_Node000003" class="edge">
<title>Node8&#45;&gt;Node3</title>
<g id="a_edge14_Node000008_Node000003"><a xlink:title=" ">
<path fill="none" stroke="#63b8ff" d="M280.15,-55.55C259.83,-46.17 234.1,-34.3 214.32,-25.17"/>
<polygon fill="#63b8ff" stroke="#63b8ff" points="215.93,-22.06 205.38,-21.04 213,-28.41 215.93,-22.06"/>
</a>
</g>
</g>
<!-- Node8&#45;&gt;Node4 -->
<g id="edge15_Node000008_Node000004" class="edge">
<title>Node8&#45;&gt;Node4</title>
<g id="a_edge15_Node000008_Node000004"><a xlink:title=" ">
<path fill="none" stroke="#63b8ff" d="M296.89,-55.55C287.76,-47.13 276.46,-36.69 267.08,-28.04"/>
<polygon fill="#63b8ff" stroke="#63b8ff" points="269.65,-25.65 259.93,-21.43 264.9,-30.79 269.65,-25.65"/>
</a>
</g>
</g>
<!-- Node8&#45;&gt;Node5 -->
<g id="edge16_Node000008_Node000005" class="edge">
<title>Node8&#45;&gt;Node5</title>
<g id="a_edge16_Node000008_Node000005"><a xlink:title=" ">
<path fill="none" stroke="#63b8ff" d="M313.88,-55.55C314,-48.34 314.15,-39.66 314.28,-31.88"/>
<polygon fill="#63b8ff" stroke="#63b8ff" points="317.78,-31.98 314.44,-21.92 310.78,-31.86 317.78,-31.98"/>
</a>
</g>
</g>
</g>
</svg>
