<?xml version="1.0" encoding="UTF-8" standalone="no"?>
<!DOCTYPE svg PUBLIC "-//W3C//DTD SVG 1.1//EN"
 "http://www.w3.org/Graphics/SVG/1.1/DTD/svg11.dtd">
<!-- Generated by graphviz version 13.1.0 (20250701.0955)
 -->
<!-- Title: src/driver_vs1053b.h Pages: 1 -->
<svg width="630pt" height="232pt"
 viewBox="0.00 0.00 630.00 232.00" xmlns="http://www.w3.org/2000/svg" xmlns:xlink="http://www.w3.org/1999/xlink">
<g id="graph0" class="graph" transform="scale(1 1) rotate(0) translate(4 228)">
<title>src/driver_vs1053b.h</title>
<!-- Node1 -->
<g id="Node000001" class="node">
<title>Node1</title>
<g id="a_Node000001"><a xlink:title="driver vs1053b header file">
<polygon fill="#999999" stroke="#666666" points="450.25,-224 343.5,-224 343.5,-204 450.25,-204 450.25,-224"/>
<text xml:space="preserve" text-anchor="middle" x="396.88" y="-210.5" font-family="Helvetica,sans-Serif" font-size="10.00">src/driver_vs1053b.h</text>
</a>
</g>
</g>
<!-- Node2 -->
<g id="Node000002" class="node">
<title>Node2</title>
<g id="a_Node000002"><a xlink:href="driver__vs1053b__interface_8h.html" target="_top" xlink:title="driver vs1053b interface header file">
<polygon fill="white" stroke="#666666" points="392.12,-168 269.62,-168 269.62,-136 392.12,-136 392.12,-168"/>
<text xml:space="preserve" text-anchor="start" x="277.62" y="-154.5" font-family="Helvetica,sans-Serif" font-size="10.00">interface/driver_vs1053b</text>
<text xml:space="preserve" text-anchor="middle" x="330.88" y="-142.5" font-family="Helvetica,sans-Serif" font-size="10.00">_interface.h</text>
</a>
</g>
</g>
<!-- Node1&#45;&gt;Node2 -->
<g id="edge1_Node000001_Node000002" class="edge">
<title>Node1&#45;&gt;Node2</title>
<g id="a_edge1_Node000001_Node000002"><a xlink:title=" ">
<path fill="none" stroke="#63b8ff" d="M378.15,-195.98C368.6,-187.29 357.07,-176.81 347.79,-168.37"/>
<polygon fill="#63b8ff" stroke="#63b8ff" points="375.69,-198.47 385.44,-202.61 380.4,-193.29 375.69,-198.47"/>
</a>
</g>
</g>
<!-- Node12 -->
<g id="Node000012" class="node">
<title>Node12</title>
<g id="a_Node000012"><a xlink:href="driver__vs1053b_8c.html" target="_top" xlink:title="driver vs1053b source file">
<polygon fill="white" stroke="#666666" points="517.25,-162 410.5,-162 410.5,-142 517.25,-142 517.25,-162"/>
<text xml:space="preserve" text-anchor="middle" x="463.88" y="-148.5" font-family="Helvetica,sans-Serif" font-size="10.00">src/driver_vs1053b.c</text>
</a>
</g>
</g>
<!-- Node1&#45;&gt;Node12 -->
<g id="edge11_Node000001_Node000012" class="edge">
<title>Node1&#45;&gt;Node12</title>
<g id="a_edge11_Node000001_Node000012"><a xlink:title=" ">
<path fill="none" stroke="#63b8ff" d="M415.61,-196.22C427.94,-185.18 443.62,-171.14 453.7,-162.11"/>
<polygon fill="#63b8ff" stroke="#63b8ff" points="413.59,-193.34 408.47,-202.62 418.26,-198.55 413.59,-193.34"/>
</a>
</g>
</g>
<!-- Node3 -->
<g id="Node000003" class="node">
<title>Node3</title>
<g id="a_Node000003"><a xlink:href="driver__vs1053b__basic_8h.html" target="_top" xlink:title="driver vs1053b basic header file">
<polygon fill="white" stroke="#666666" points="121.75,-100 0,-100 0,-68 121.75,-68 121.75,-100"/>
<text xml:space="preserve" text-anchor="start" x="8" y="-86.5" font-family="Helvetica,sans-Serif" font-size="10.00">example/driver_vs1053b</text>
<text xml:space="preserve" text-anchor="middle" x="60.88" y="-74.5" font-family="Helvetica,sans-Serif" font-size="10.00">_basic.h</text>
</a>
</g>
</g>
<!-- Node2&#45;&gt;Node3 -->
<g id="edge2_Node000002_Node000003" class="edge">
<title>Node2&#45;&gt;Node3</title>
<g id="a_edge2_Node000002_Node000003"><a xlink:title=" ">
<path fill="none" stroke="#63b8ff" d="M258.14,-133.22C215.64,-122.83 162.59,-109.86 122.22,-99.99"/>
<polygon fill="#63b8ff" stroke="#63b8ff" points="257.25,-136.61 267.8,-135.58 258.92,-129.81 257.25,-136.61"/>
</a>
</g>
</g>
<!-- Node5 -->
<g id="Node000005" class="node">
<title>Node5</title>
<g id="a_Node000005"><a xlink:href="driver__vs1053b__interface__template_8c.html" target="_top" xlink:title="driver vs1053b interface template source file">
<polygon fill="white" stroke="#666666" points="262.12,-100 139.62,-100 139.62,-68 262.12,-68 262.12,-100"/>
<text xml:space="preserve" text-anchor="start" x="147.62" y="-86.5" font-family="Helvetica,sans-Serif" font-size="10.00">interface/driver_vs1053b</text>
<text xml:space="preserve" text-anchor="middle" x="200.88" y="-74.5" font-family="Helvetica,sans-Serif" font-size="10.00">_interface_template.c</text>
</a>
</g>
</g>
<!-- Node2&#45;&gt;Node5 -->
<g id="edge4_Node000002_Node000005" class="edge">
<title>Node2&#45;&gt;Node5</title>
<g id="a_edge4_Node000002_Node000005"><a xlink:title=" ">
<path fill="none" stroke="#63b8ff" d="M290.18,-130.34C271.09,-120.65 248.73,-109.3 231.16,-100.38"/>
<polygon fill="#63b8ff" stroke="#63b8ff" points="288.55,-133.43 299.05,-134.84 291.71,-127.19 288.55,-133.43"/>
</a>
</g>
</g>
<!-- Node6 -->
<g id="Node000006" class="node">
<title>Node6</title>
<g id="a_Node000006"><a xlink:href="driver__vs1053b__play__test_8h.html" target="_top" xlink:title="driver vs1053b play test header file">
<polygon fill="white" stroke="#666666" points="381.62,-100 280.12,-100 280.12,-68 381.62,-68 381.62,-100"/>
<text xml:space="preserve" text-anchor="start" x="288.12" y="-86.5" font-family="Helvetica,sans-Serif" font-size="10.00">test/driver_vs1053b</text>
<text xml:space="preserve" text-anchor="middle" x="330.88" y="-74.5" font-family="Helvetica,sans-Serif" font-size="10.00">_play_test.h</text>
</a>
</g>
</g>
<!-- Node2&#45;&gt;Node6 -->
<g id="edge5_Node000002_Node000006" class="edge">
<title>Node2&#45;&gt;Node6</title>
<g id="a_edge5_Node000002_Node000006"><a xlink:title=" ">
<path fill="none" stroke="#63b8ff" d="M330.88,-124.31C330.88,-116.12 330.88,-107.38 330.88,-100.22"/>
<polygon fill="#63b8ff" stroke="#63b8ff" points="327.38,-124.18 330.88,-134.18 334.38,-124.18 327.38,-124.18"/>
</a>
</g>
</g>
<!-- Node8 -->
<g id="Node000008" class="node">
<title>Node8</title>
<g id="a_Node000008"><a xlink:href="driver__vs1053b__record__test_8h.html" target="_top" xlink:title="driver vs1053b record test header file">
<polygon fill="white" stroke="#666666" points="501.62,-100 400.12,-100 400.12,-68 501.62,-68 501.62,-100"/>
<text xml:space="preserve" text-anchor="start" x="408.12" y="-86.5" font-family="Helvetica,sans-Serif" font-size="10.00">test/driver_vs1053b</text>
<text xml:space="preserve" text-anchor="middle" x="450.88" y="-74.5" font-family="Helvetica,sans-Serif" font-size="10.00">_record_test.h</text>
</a>
</g>
</g>
<!-- Node2&#45;&gt;Node8 -->
<g id="edge7_Node000002_Node000008" class="edge">
<title>Node2&#45;&gt;Node8</title>
<g id="a_edge7_Node000002_Node000008"><a xlink:title=" ">
<path fill="none" stroke="#63b8ff" d="M368.93,-130.07C386.44,-120.44 406.85,-109.21 422.92,-100.38"/>
<polygon fill="#63b8ff" stroke="#63b8ff" points="367.41,-126.91 360.34,-134.8 370.78,-133.04 367.41,-126.91"/>
</a>
</g>
</g>
<!-- Node10 -->
<g id="Node000010" class="node">
<title>Node10</title>
<g id="a_Node000010"><a xlink:href="driver__vs1053b__register__test_8h.html" target="_top" xlink:title="driver vs1053b register test header file">
<polygon fill="white" stroke="#666666" points="621.62,-100 520.12,-100 520.12,-68 621.62,-68 621.62,-100"/>
<text xml:space="preserve" text-anchor="start" x="528.12" y="-86.5" font-family="Helvetica,sans-Serif" font-size="10.00">test/driver_vs1053b</text>
<text xml:space="preserve" text-anchor="middle" x="570.88" y="-74.5" font-family="Helvetica,sans-Serif" font-size="10.00">_register_test.h</text>
</a>
</g>
</g>
<!-- Node2&#45;&gt;Node10 -->
<g id="edge9_Node000002_Node000010" class="edge">
<title>Node2&#45;&gt;Node10</title>
<g id="a_edge9_Node000002_Node000010"><a xlink:title=" ">
<path fill="none" stroke="#63b8ff" d="M397.78,-132.6C436.43,-121.97 484.28,-108.81 519.86,-99.03"/>
<polygon fill="#63b8ff" stroke="#63b8ff" points="397.32,-129.1 388.6,-135.12 399.17,-135.85 397.32,-129.1"/>
</a>
</g>
</g>
<!-- Node4 -->
<g id="Node000004" class="node">
<title>Node4</title>
<g id="a_Node000004"><a xlink:href="driver__vs1053b__basic_8c.html" target="_top" xlink:title="driver vs1053b basic source file">
<polygon fill="white" stroke="#666666" points="121.75,-32 0,-32 0,0 121.75,0 121.75,-32"/>
<text xml:space="preserve" text-anchor="start" x="8" y="-18.5" font-family="Helvetica,sans-Serif" font-size="10.00">example/driver_vs1053b</text>
<text xml:space="preserve" text-anchor="middle" x="60.88" y="-6.5" font-family="Helvetica,sans-Serif" font-size="10.00">_basic.c</text>
</a>
</g>
</g>
<!-- Node3&#45;&gt;Node4 -->
<g id="edge3_Node000003_Node000004" class="edge">
<title>Node3&#45;&gt;Node4</title>
<g id="a_edge3_Node000003_Node000004"><a xlink:title=" ">
<path fill="none" stroke="#63b8ff" d="M60.88,-56.31C60.88,-48.12 60.88,-39.38 60.88,-32.22"/>
<polygon fill="#63b8ff" stroke="#63b8ff" points="57.38,-56.18 60.88,-66.18 64.38,-56.18 57.38,-56.18"/>
</a>
</g>
</g>
<!-- Node7 -->
<g id="Node000007" class="node">
<title>Node7</title>
<g id="a_Node000007"><a xlink:href="driver__vs1053b__play__test_8c.html" target="_top" xlink:title="driver vs1053b play test source file">
<polygon fill="white" stroke="#666666" points="381.62,-32 280.12,-32 280.12,0 381.62,0 381.62,-32"/>
<text xml:space="preserve" text-anchor="start" x="288.12" y="-18.5" font-family="Helvetica,sans-Serif" font-size="10.00">test/driver_vs1053b</text>
<text xml:space="preserve" text-anchor="middle" x="330.88" y="-6.5" font-family="Helvetica,sans-Serif" font-size="10.00">_play_test.c</text>
</a>
</g>
</g>
<!-- Node6&#45;&gt;Node7 -->
<g id="edge6_Node000006_Node000007" class="edge">
<title>Node6&#45;&gt;Node7</title>
<g id="a_edge6_Node000006_Node000007"><a xlink:title=" ">
<path fill="none" stroke="#63b8ff" d="M330.88,-56.31C330.88,-48.12 330.88,-39.38 330.88,-32.22"/>
<polygon fill="#63b8ff" stroke="#63b8ff" points="327.38,-56.18 330.88,-66.18 334.38,-56.18 327.38,-56.18"/>
</a>
</g>
</g>
<!-- Node9 -->
<g id="Node000009" class="node">
<title>Node9</title>
<g id="a_Node000009"><a xlink:href="driver__vs1053b__record__test_8c.html" target="_top" xlink:title="driver vs1053b record test source file">
<polygon fill="white" stroke="#666666" points="501.62,-32 400.12,-32 400.12,0 501.62,0 501.62,-32"/>
<text xml:space="preserve" text-anchor="start" x="408.12" y="-18.5" font-family="Helvetica,sans-Serif" font-size="10.00">test/driver_vs1053b</text>
<text xml:space="preserve" text-anchor="middle" x="450.88" y="-6.5" font-family="Helvetica,sans-Serif" font-size="10.00">_record_test.c</text>
</a>
</g>
</g>
<!-- Node8&#45;&gt;Node9 -->
<g id="edge8_Node000008_Node000009" class="edge">
<title>Node8&#45;&gt;Node9</title>
<g id="a_edge8_Node000008_Node000009"><a xlink:title=" ">
<path fill="none" stroke="#63b8ff" d="M450.88,-56.31C450.88,-48.12 450.88,-39.38 450.88,-32.22"/>
<polygon fill="#63b8ff" stroke="#63b8ff" points="447.38,-56.18 450.88,-66.18 454.38,-56.18 447.38,-56.18"/>
</a>
</g>
</g>
<!-- Node11 -->
<g id="Node000011" class="node">
<title>Node11</title>
<g id="a_Node000011"><a xlink:href="driver__vs1053b__register__test_8c.html" target="_top" xlink:title="driver vs1053b register test source file">
<polygon fill="white" stroke="#666666" points="621.62,-32 520.12,-32 520.12,0 621.62,0 621.62,-32"/>
<text xml:space="preserve" text-anchor="start" x="528.12" y="-18.5" font-family="Helvetica,sans-Serif" font-size="10.00">test/driver_vs1053b</text>
<text xml:space="preserve" text-anchor="middle" x="570.88" y="-6.5" font-family="Helvetica,sans-Serif" font-size="10.00">_register_test.c</text>
</a>
</g>
</g>
<!-- Node10&#45;&gt;Node11 -->
<g id="edge10_Node000010_Node000011" class="edge">
<title>Node10&#45;&gt;Node11</title>
<g id="a_edge10_Node000010_Node000011"><a xlink:title=" ">
<path fill="none" stroke="#63b8ff" d="M570.88,-56.31C570.88,-48.12 570.88,-39.38 570.88,-32.22"/>
<polygon fill="#63b8ff" stroke="#63b8ff" points="567.38,-56.18 570.88,-66.18 574.38,-56.18 567.38,-56.18"/>
</a>
</g>
</g>
</g>
</svg>
