<?xml version="1.0" encoding="UTF-8" standalone="no"?>
<!DOCTYPE svg PUBLIC "-//W3C//DTD SVG 1.1//EN"
 "http://www.w3.org/Graphics/SVG/1.1/DTD/svg11.dtd">
<!-- Generated by graphviz version 13.1.0 (20250701.0955)
 -->
<!-- Title: vs1053b_basic_play Pages: 1 -->
<svg width="254pt" height="104pt"
 viewBox="0.00 0.00 254.00 104.00" xmlns="http://www.w3.org/2000/svg" xmlns:xlink="http://www.w3.org/1999/xlink">
<g id="graph0" class="graph" transform="scale(1 1) rotate(0) translate(4 100)">
<title>vs1053b_basic_play</title>
<!-- Node1 -->
<g id="Node000001" class="node">
<title>Node1</title>
<g id="a_Node000001"><a xlink:title="basic example play">
<polygon fill="#999999" stroke="#666666" points="104.5,-58 0,-58 0,-38 104.5,-38 104.5,-58"/>
<text xml:space="preserve" text-anchor="middle" x="52.25" y="-44.5" font-family="Helvetica,sans-Serif" font-size="10.00">vs1053b_basic_play</text>
</a>
</g>
</g>
<!-- Node2 -->
<g id="Node000002" class="node">
<title>Node2</title>
<g id="a_Node000002"><a xlink:href="group__vs1053b__basic__driver.html#ga97c61d1677a3113209cc2d683c615e6f" target="_top" xlink:title="get patch info">
<polygon fill="white" stroke="#666666" points="243.5,-96 142.75,-96 142.75,-76 243.5,-76 243.5,-96"/>
<text xml:space="preserve" text-anchor="middle" x="193.12" y="-82.5" font-family="Helvetica,sans-Serif" font-size="10.00">vs1053b_get_patch</text>
</a>
</g>
</g>
<!-- Node1&#45;&gt;Node2 -->
<g id="edge1_Node000001_Node000002" class="edge">
<title>Node1&#45;&gt;Node2</title>
<g id="a_edge1_Node000001_Node000002"><a xlink:title=" ">
<path fill="none" stroke="#63b8ff" d="M91.57,-58.48C107.5,-62.85 126.2,-67.96 143.12,-72.59"/>
<polygon fill="#63b8ff" stroke="#63b8ff" points="141.91,-75.89 152.47,-75.15 143.75,-69.14 141.91,-75.89"/>
</a>
</g>
</g>
<!-- Node3 -->
<g id="Node000003" class="node">
<title>Node3</title>
<g id="a_Node000003"><a xlink:href="group__vs1053b__basic__driver.html#gadf07b71842e56cce982098d5ceef6796" target="_top" xlink:title="load patch">
<polygon fill="white" stroke="#666666" points="245.75,-58 140.5,-58 140.5,-38 245.75,-38 245.75,-58"/>
<text xml:space="preserve" text-anchor="middle" x="193.12" y="-44.5" font-family="Helvetica,sans-Serif" font-size="10.00">vs1053b_load_patch</text>
</a>
</g>
</g>
<!-- Node1&#45;&gt;Node3 -->
<g id="edge2_Node000001_Node000003" class="edge">
<title>Node1&#45;&gt;Node3</title>
<g id="a_edge2_Node000001_Node000003"><a xlink:title=" ">
<path fill="none" stroke="#63b8ff" d="M104.96,-48C112.82,-48 121.01,-48 129.08,-48"/>
<polygon fill="#63b8ff" stroke="#63b8ff" points="128.86,-51.5 138.86,-48 128.86,-44.5 128.86,-51.5"/>
</a>
</g>
</g>
<!-- Node4 -->
<g id="Node000004" class="node">
<title>Node4</title>
<g id="a_Node000004"><a xlink:href="group__vs1053b__basic__driver.html#gadc5409c72ef02e35b2e5f88cc5c6c083" target="_top" xlink:title="play audio">
<polygon fill="white" stroke="#666666" points="231.12,-20 155.12,-20 155.12,0 231.12,0 231.12,-20"/>
<text xml:space="preserve" text-anchor="middle" x="193.12" y="-6.5" font-family="Helvetica,sans-Serif" font-size="10.00">vs1053b_play</text>
</a>
</g>
</g>
<!-- Node1&#45;&gt;Node4 -->
<g id="edge3_Node000001_Node000004" class="edge">
<title>Node1&#45;&gt;Node4</title>
<g id="a_edge3_Node000001_Node000004"><a xlink:title=" ">
<path fill="none" stroke="#63b8ff" d="M91.57,-37.52C107.77,-33.08 126.82,-27.87 143.96,-23.18"/>
<polygon fill="#63b8ff" stroke="#63b8ff" points="144.71,-26.6 153.43,-20.59 142.86,-19.85 144.71,-26.6"/>
</a>
</g>
</g>
</g>
</svg>
