<?xml version="1.0" encoding="UTF-8" standalone="no"?>
<!DOCTYPE svg PUBLIC "-//W3C//DTD SVG 1.1//EN"
 "http://www.w3.org/Graphics/SVG/1.1/DTD/svg11.dtd">
<!-- Generated by graphviz version 13.1.0 (20250701.0955)
 -->
<!-- Title: vs1053b_basic_record Pages: 1 -->
<svg width="300pt" height="444pt"
 viewBox="0.00 0.00 300.00 444.00" xmlns="http://www.w3.org/2000/svg" xmlns:xlink="http://www.w3.org/1999/xlink">
<g id="graph0" class="graph" transform="scale(1 1) rotate(0) translate(4 440)">
<title>vs1053b_basic_record</title>
<!-- Node1 -->
<g id="Node000001" class="node">
<title>Node1</title>
<g id="a_Node000001"><a xlink:title="basic example record">
<polygon fill="#999999" stroke="#666666" points="113.5,-234 0,-234 0,-214 113.5,-214 113.5,-234"/>
<text xml:space="preserve" text-anchor="middle" x="56.75" y="-220.5" font-family="Helvetica,sans-Serif" font-size="10.00">vs1053b_basic_record</text>
</a>
</g>
</g>
<!-- Node2 -->
<g id="Node000002" class="node">
<title>Node2</title>
<g id="a_Node000002"><a xlink:href="group__vs1053b__basic__driver.html#gaccc9d75b7a6a7a003129c532635c3648" target="_top" xlink:title="deinit the chip">
<polygon fill="white" stroke="#666666" points="261.5,-436 180.25,-436 180.25,-416 261.5,-416 261.5,-436"/>
<text xml:space="preserve" text-anchor="middle" x="220.88" y="-422.5" font-family="Helvetica,sans-Serif" font-size="10.00">vs1053b_deinit</text>
</a>
</g>
</g>
<!-- Node1&#45;&gt;Node2 -->
<g id="edge1_Node000001_Node000002" class="edge">
<title>Node1&#45;&gt;Node2</title>
<g id="a_edge1_Node000001_Node000002"><a xlink:title=" ">
<path fill="none" stroke="#63b8ff" d="M59.78,-234.14C66.52,-265.12 91.15,-359.34 149.5,-407 155.3,-411.73 162.17,-415.29 169.31,-417.97"/>
<polygon fill="#63b8ff" stroke="#63b8ff" points="167.84,-421.18 178.43,-420.84 169.94,-414.5 167.84,-421.18"/>
</a>
</g>
</g>
<!-- Node3 -->
<g id="Node000003" class="node">
<title>Node3</title>
<g id="a_Node000003"><a xlink:href="group__vs1053b__basic__driver.html#ga97c61d1677a3113209cc2d683c615e6f" target="_top" xlink:title="get patch info">
<polygon fill="white" stroke="#666666" points="271.25,-398 170.5,-398 170.5,-378 271.25,-378 271.25,-398"/>
<text xml:space="preserve" text-anchor="middle" x="220.88" y="-384.5" font-family="Helvetica,sans-Serif" font-size="10.00">vs1053b_get_patch</text>
</a>
</g>
</g>
<!-- Node1&#45;&gt;Node3 -->
<g id="edge2_Node000001_Node000003" class="edge">
<title>Node1&#45;&gt;Node3</title>
<g id="a_edge2_Node000001_Node000003"><a xlink:title=" ">
<path fill="none" stroke="#63b8ff" d="M61.23,-234.27C70.79,-260.89 100.1,-332.59 149.5,-369 152.65,-371.32 156.07,-373.36 159.64,-375.15"/>
<polygon fill="#63b8ff" stroke="#63b8ff" points="158.07,-378.29 168.64,-378.97 160.8,-371.84 158.07,-378.29"/>
</a>
</g>
</g>
<!-- Node4 -->
<g id="Node000004" class="node">
<title>Node4</title>
<g id="a_Node000004"><a xlink:href="group__vs1053b__interface__driver.html#ga83a8710d94111d6d05631845cb34f30a" target="_top" xlink:title="interface print format data">
<polygon fill="white" stroke="#666666" points="284.38,-360 157.38,-360 157.38,-328 284.38,-328 284.38,-360"/>
<text xml:space="preserve" text-anchor="start" x="165.38" y="-346.5" font-family="Helvetica,sans-Serif" font-size="10.00">vs1053b_interface_debug</text>
<text xml:space="preserve" text-anchor="middle" x="220.88" y="-334.5" font-family="Helvetica,sans-Serif" font-size="10.00">_print</text>
</a>
</g>
</g>
<!-- Node1&#45;&gt;Node4 -->
<g id="edge3_Node000001_Node000004" class="edge">
<title>Node1&#45;&gt;Node4</title>
<g id="a_edge3_Node000001_Node000004"><a xlink:title=" ">
<path fill="none" stroke="#63b8ff" d="M65.15,-234.37C79.38,-253.65 112.49,-295.17 149.5,-319 151.46,-320.26 153.49,-321.47 155.57,-322.62"/>
<polygon fill="#63b8ff" stroke="#63b8ff" points="153.76,-325.63 164.27,-326.97 156.89,-319.37 153.76,-325.63"/>
</a>
</g>
</g>
<!-- Node5 -->
<g id="Node000005" class="node">
<title>Node5</title>
<g id="a_Node000005"><a xlink:href="group__vs1053b__interface__driver.html#ga55ef8d3b3abde7b11b1eea74e58994a7" target="_top" xlink:title="interface delay ms">
<polygon fill="white" stroke="#666666" points="292.25,-310 149.5,-310 149.5,-290 292.25,-290 292.25,-310"/>
<text xml:space="preserve" text-anchor="middle" x="220.88" y="-296.5" font-family="Helvetica,sans-Serif" font-size="10.00">vs1053b_interface_delay_ms</text>
</a>
</g>
</g>
<!-- Node1&#45;&gt;Node5 -->
<g id="edge4_Node000001_Node000005" class="edge">
<title>Node1&#45;&gt;Node5</title>
<g id="a_edge4_Node000001_Node000005"><a xlink:title=" ">
<path fill="none" stroke="#63b8ff" d="M71.65,-234.45C89.03,-247.08 120.09,-268.22 149.5,-281 153.74,-282.84 158.21,-284.55 162.75,-286.12"/>
<polygon fill="#63b8ff" stroke="#63b8ff" points="161.37,-289.35 171.97,-289.06 163.51,-282.68 161.37,-289.35"/>
</a>
</g>
</g>
<!-- Node6 -->
<g id="Node000006" class="node">
<title>Node6</title>
<g id="a_Node000006"><a xlink:href="group__vs1053b__basic__driver.html#gadf07b71842e56cce982098d5ceef6796" target="_top" xlink:title="load patch">
<polygon fill="white" stroke="#666666" points="273.5,-272 168.25,-272 168.25,-252 273.5,-252 273.5,-272"/>
<text xml:space="preserve" text-anchor="middle" x="220.88" y="-258.5" font-family="Helvetica,sans-Serif" font-size="10.00">vs1053b_load_patch</text>
</a>
</g>
</g>
<!-- Node1&#45;&gt;Node6 -->
<g id="edge5_Node000001_Node000006" class="edge">
<title>Node1&#45;&gt;Node6</title>
<g id="a_edge5_Node000001_Node000006"><a xlink:title=" ">
<path fill="none" stroke="#63b8ff" d="M102.48,-234.48C121.62,-238.97 144.16,-244.25 164.35,-248.99"/>
<polygon fill="#63b8ff" stroke="#63b8ff" points="163.28,-252.33 173.82,-251.2 164.88,-245.51 163.28,-252.33"/>
</a>
</g>
</g>
<!-- Node7 -->
<g id="Node000007" class="node">
<title>Node7</title>
<g id="a_Node000007"><a xlink:href="group__vs1053b__basic__driver.html#gadbaf27d4a6bc11eec0279995d424cc57" target="_top" xlink:title="record audio">
<polygon fill="white" stroke="#666666" points="263.38,-234 178.38,-234 178.38,-214 263.38,-214 263.38,-234"/>
<text xml:space="preserve" text-anchor="middle" x="220.88" y="-220.5" font-family="Helvetica,sans-Serif" font-size="10.00">vs1053b_record</text>
</a>
</g>
</g>
<!-- Node1&#45;&gt;Node7 -->
<g id="edge6_Node000001_Node000007" class="edge">
<title>Node1&#45;&gt;Node7</title>
<g id="a_edge6_Node000001_Node000007"><a xlink:title=" ">
<path fill="none" stroke="#63b8ff" d="M114,-224C131.09,-224 149.81,-224 166.69,-224"/>
<polygon fill="#63b8ff" stroke="#63b8ff" points="166.53,-227.5 176.53,-224 166.53,-220.5 166.53,-227.5"/>
</a>
</g>
</g>
<!-- Node8 -->
<g id="Node000008" class="node">
<title>Node8</title>
<g id="a_Node000008"><a xlink:href="group__vs1053b__basic__driver.html#ga899f2dacdc4579b6de617f3597c2d0f3" target="_top" xlink:title="enable or disable pcm adpcm recording active">
<polygon fill="white" stroke="#666666" points="285.88,-196 155.88,-196 155.88,-164 285.88,-164 285.88,-196"/>
<text xml:space="preserve" text-anchor="start" x="163.88" y="-182.5" font-family="Helvetica,sans-Serif" font-size="10.00">vs1053b_set_pcm_adpcm</text>
<text xml:space="preserve" text-anchor="middle" x="220.88" y="-170.5" font-family="Helvetica,sans-Serif" font-size="10.00">_recording_active</text>
</a>
</g>
</g>
<!-- Node1&#45;&gt;Node8 -->
<g id="edge7_Node000001_Node000008" class="edge">
<title>Node1&#45;&gt;Node8</title>
<g id="a_edge7_Node000001_Node000008"><a xlink:title=" ">
<path fill="none" stroke="#63b8ff" d="M96.17,-213.57C111.76,-209.34 130.28,-204.31 148.19,-199.45"/>
<polygon fill="#63b8ff" stroke="#63b8ff" points="149.04,-202.85 157.77,-196.86 147.2,-196.1 149.04,-202.85"/>
</a>
</g>
</g>
<!-- Node9 -->
<g id="Node000009" class="node">
<title>Node9</title>
<g id="a_Node000009"><a xlink:href="group__vs1053b__basic__driver.html#gabb93e563bc9a91e5cfad7c95a612ede0" target="_top" xlink:title="set ram address">
<polygon fill="white" stroke="#666666" points="287.38,-146 154.38,-146 154.38,-126 287.38,-126 287.38,-146"/>
<text xml:space="preserve" text-anchor="middle" x="220.88" y="-132.5" font-family="Helvetica,sans-Serif" font-size="10.00">vs1053b_set_ram_address</text>
</a>
</g>
</g>
<!-- Node1&#45;&gt;Node9 -->
<g id="edge8_Node000001_Node000009" class="edge">
<title>Node1&#45;&gt;Node9</title>
<g id="a_edge8_Node000001_Node000009"><a xlink:title=" ">
<path fill="none" stroke="#63b8ff" d="M68.68,-213.53C85,-198.46 117.26,-170.74 149.5,-155 153.02,-153.28 156.71,-151.7 160.49,-150.25"/>
<polygon fill="#63b8ff" stroke="#63b8ff" points="161.56,-153.59 169.85,-147 159.26,-146.97 161.56,-153.59"/>
</a>
</g>
</g>
<!-- Node10 -->
<g id="Node000010" class="node">
<title>Node10</title>
<g id="a_Node000010"><a xlink:href="group__vs1053b__basic__driver.html#ga952ce044b4060809e1878b04c72c7811" target="_top" xlink:title="set record format">
<polygon fill="white" stroke="#666666" points="272.75,-108 169,-108 169,-76 272.75,-76 272.75,-108"/>
<text xml:space="preserve" text-anchor="start" x="177" y="-94.5" font-family="Helvetica,sans-Serif" font-size="10.00">vs1053b_set_record</text>
<text xml:space="preserve" text-anchor="middle" x="220.88" y="-82.5" font-family="Helvetica,sans-Serif" font-size="10.00">_format</text>
</a>
</g>
</g>
<!-- Node1&#45;&gt;Node10 -->
<g id="edge9_Node000001_Node000010" class="edge">
<title>Node1&#45;&gt;Node10</title>
<g id="a_edge9_Node000001_Node000010"><a xlink:title=" ">
<path fill="none" stroke="#63b8ff" d="M63.99,-213.6C77.18,-192.45 109.96,-144.15 149.5,-117 152.35,-115.04 155.36,-113.23 158.49,-111.54"/>
<polygon fill="#63b8ff" stroke="#63b8ff" points="159.89,-114.74 167.36,-107.23 156.84,-108.45 159.89,-114.74"/>
</a>
</g>
</g>
<!-- Node11 -->
<g id="Node000011" class="node">
<title>Node11</title>
<g id="a_Node000011"><a xlink:href="group__vs1053b__basic__driver.html#gab49057704e5757aa515d6066ec35dd20" target="_top" xlink:title="enable or disable soft reset">
<polygon fill="white" stroke="#666666" points="281,-58 160.75,-58 160.75,-38 281,-38 281,-58"/>
<text xml:space="preserve" text-anchor="middle" x="220.88" y="-44.5" font-family="Helvetica,sans-Serif" font-size="10.00">vs1053b_set_soft_reset</text>
</a>
</g>
</g>
<!-- Node1&#45;&gt;Node11 -->
<g id="edge10_Node000001_Node000011" class="edge">
<title>Node1&#45;&gt;Node11</title>
<g id="a_edge10_Node000001_Node000011"><a xlink:title=" ">
<path fill="none" stroke="#63b8ff" d="M60.72,-213.72C69.37,-185.6 97.34,-106.89 149.5,-67 151.06,-65.81 152.68,-64.7 154.36,-63.65"/>
<polygon fill="#63b8ff" stroke="#63b8ff" points="155.87,-66.81 163.14,-59.09 152.65,-60.6 155.87,-66.81"/>
</a>
</g>
</g>
<!-- Node12 -->
<g id="Node000012" class="node">
<title>Node12</title>
<g id="a_Node000012"><a xlink:href="group__vs1053b__basic__driver.html#gae3bca1bccf9d8ebdd62164f25ff53e82" target="_top" xlink:title="write ram">
<polygon fill="white" stroke="#666666" points="271.25,-20 170.5,-20 170.5,0 271.25,0 271.25,-20"/>
<text xml:space="preserve" text-anchor="middle" x="220.88" y="-6.5" font-family="Helvetica,sans-Serif" font-size="10.00">vs1053b_write_ram</text>
</a>
</g>
</g>
<!-- Node1&#45;&gt;Node12 -->
<g id="edge11_Node000001_Node000012" class="edge">
<title>Node1&#45;&gt;Node12</title>
<g id="a_edge11_Node000001_Node000012"><a xlink:title=" ">
<path fill="none" stroke="#63b8ff" d="M59.48,-213.68C65.46,-181.19 88.41,-80.18 149.5,-29 152.7,-26.32 156.23,-24.02 159.97,-22.04"/>
<polygon fill="#63b8ff" stroke="#63b8ff" points="161.12,-25.36 168.86,-18.13 158.3,-18.95 161.12,-25.36"/>
</a>
</g>
</g>
</g>
</svg>
