<?xml version="1.0" encoding="UTF-8" standalone="no"?>
<!DOCTYPE svg PUBLIC "-//W3C//DTD SVG 1.1//EN"
 "http://www.w3.org/Graphics/SVG/1.1/DTD/svg11.dtd">
<!-- Generated by graphviz version 13.1.0 (20250701.0955)
 -->
<!-- Title: vs1053b_basic_set_vol Pages: 1 -->
<svg width="270pt" height="78pt"
 viewBox="0.00 0.00 270.00 78.00" xmlns="http://www.w3.org/2000/svg" xmlns:xlink="http://www.w3.org/1999/xlink">
<g id="graph0" class="graph" transform="scale(1 1) rotate(0) translate(4 74)">
<title>vs1053b_basic_set_vol</title>
<!-- Node1 -->
<g id="Node000001" class="node">
<title>Node1</title>
<g id="a_Node000001"><a xlink:title="basic example set vol">
<polygon fill="#999999" stroke="#666666" points="118,-48 0,-48 0,-28 118,-28 118,-48"/>
<text xml:space="preserve" text-anchor="middle" x="59" y="-34.5" font-family="Helvetica,sans-Serif" font-size="10.00">vs1053b_basic_set_vol</text>
</a>
</g>
</g>
<!-- Node2 -->
<g id="Node000002" class="node">
<title>Node2</title>
<g id="a_Node000002"><a xlink:href="group__vs1053b__basic__driver.html#ga1ff46bd7d40bf1f42691989c1cc9e967" target="_top" xlink:title="set vol">
<polygon fill="white" stroke="#666666" points="252.88,-70 163.38,-70 163.38,-50 252.88,-50 252.88,-70"/>
<text xml:space="preserve" text-anchor="middle" x="208.12" y="-56.5" font-family="Helvetica,sans-Serif" font-size="10.00">vs1053b_set_vol</text>
</a>
</g>
</g>
<!-- Node1&#45;&gt;Node2 -->
<g id="edge1_Node000001_Node000002" class="edge">
<title>Node1&#45;&gt;Node2</title>
<g id="a_edge1_Node000001_Node000002"><a xlink:title=" ">
<path fill="none" stroke="#63b8ff" d="M118.15,-46.69C129.24,-48.35 140.81,-50.08 151.81,-51.73"/>
<polygon fill="#63b8ff" stroke="#63b8ff" points="151.11,-55.16 161.52,-53.18 152.14,-48.24 151.11,-55.16"/>
</a>
</g>
</g>
<!-- Node3 -->
<g id="Node000003" class="node">
<title>Node3</title>
<g id="a_Node000003"><a xlink:href="group__vs1053b__basic__driver.html#gab23282b0d35645d919619a1e7222a078" target="_top" xlink:title="convert vol to the register raw data">
<polygon fill="white" stroke="#666666" points="262.25,-32 154,-32 154,0 262.25,0 262.25,-32"/>
<text xml:space="preserve" text-anchor="start" x="162" y="-18.5" font-family="Helvetica,sans-Serif" font-size="10.00">vs1053b_vol_convert</text>
<text xml:space="preserve" text-anchor="middle" x="208.12" y="-6.5" font-family="Helvetica,sans-Serif" font-size="10.00">_to_register</text>
</a>
</g>
</g>
<!-- Node1&#45;&gt;Node3 -->
<g id="edge2_Node000001_Node000003" class="edge">
<title>Node1&#45;&gt;Node3</title>
<g id="a_edge2_Node000001_Node000003"><a xlink:title=" ">
<path fill="none" stroke="#63b8ff" d="M118.15,-29.31C126.12,-28.11 134.34,-26.88 142.42,-25.68"/>
<polygon fill="#63b8ff" stroke="#63b8ff" points="142.83,-29.15 152.21,-24.21 141.8,-22.23 142.83,-29.15"/>
</a>
</g>
</g>
</g>
</svg>
