<?xml version="1.0" encoding="UTF-8" standalone="no"?>
<!DOCTYPE svg PUBLIC "-//W3C//DTD SVG 1.1//EN"
 "http://www.w3.org/Graphics/SVG/1.1/DTD/svg11.dtd">
<!-- Generated by graphviz version 13.1.0 (20250701.0955)
 -->
<!-- Title: vs1053b_basic_get_info Pages: 1 -->
<svg width="268pt" height="66pt"
 viewBox="0.00 0.00 268.00 66.00" xmlns="http://www.w3.org/2000/svg" xmlns:xlink="http://www.w3.org/1999/xlink">
<g id="graph0" class="graph" transform="scale(1 1) rotate(0) translate(4 62)">
<title>vs1053b_basic_get_info</title>
<!-- Node1 -->
<g id="Node000001" class="node">
<title>Node1</title>
<g id="a_Node000001"><a xlink:title="basic example get info">
<polygon fill="#999999" stroke="#666666" points="121,-39 0,-39 0,-19 121,-19 121,-39"/>
<text xml:space="preserve" text-anchor="middle" x="60.5" y="-25.5" font-family="Helvetica,sans-Serif" font-size="10.00">vs1053b_basic_get_info</text>
</a>
</g>
</g>
<!-- Node2 -->
<g id="Node000002" class="node">
<title>Node2</title>
<g id="a_Node000002"><a xlink:href="group__vs1053b__basic__driver.html#gada5ba3e52599ee0f896fa0a51d2eab89" target="_top" xlink:title="get hdata">
<polygon fill="white" stroke="#666666" points="258.88,-58 158.12,-58 158.12,-38 258.88,-38 258.88,-58"/>
<text xml:space="preserve" text-anchor="middle" x="208.5" y="-44.5" font-family="Helvetica,sans-Serif" font-size="10.00">vs1053b_get_hdata</text>
</a>
</g>
</g>
<!-- Node1&#45;&gt;Node2 -->
<g id="edge1_Node000001_Node000002" class="edge">
<title>Node1&#45;&gt;Node2</title>
<g id="a_edge1_Node000001_Node000002"><a xlink:title=" ">
<path fill="none" stroke="#63b8ff" d="M121.31,-36.78C129.64,-37.87 138.22,-38.98 146.58,-40.07"/>
<polygon fill="#63b8ff" stroke="#63b8ff" points="145.93,-43.52 156.29,-41.34 146.83,-36.57 145.93,-43.52"/>
</a>
</g>
</g>
<!-- Node3 -->
<g id="Node000003" class="node">
<title>Node3</title>
<g id="a_Node000003"><a xlink:href="group__vs1053b__basic__driver.html#ga052c5cef1d8bd12f27d089add59a8acb" target="_top" xlink:title="parse info">
<polygon fill="white" stroke="#666666" points="260,-20 157,-20 157,0 260,0 260,-20"/>
<text xml:space="preserve" text-anchor="middle" x="208.5" y="-6.5" font-family="Helvetica,sans-Serif" font-size="10.00">vs1053b_parse_info</text>
</a>
</g>
</g>
<!-- Node1&#45;&gt;Node3 -->
<g id="edge2_Node000001_Node000003" class="edge">
<title>Node1&#45;&gt;Node3</title>
<g id="a_edge2_Node000001_Node000003"><a xlink:title=" ">
<path fill="none" stroke="#63b8ff" d="M121.31,-21.22C129.33,-20.17 137.58,-19.1 145.65,-18.05"/>
<polygon fill="#63b8ff" stroke="#63b8ff" points="145.91,-21.54 155.38,-16.78 145.01,-14.6 145.91,-21.54"/>
</a>
</g>
</g>
</g>
</svg>
